<mxfile host="app.diagrams.net" agent="Mozilla/5.0 (Windows NT 10.0; Win64; x64) AppleWebKit/537.36 (KHTML, like Gecko) Chrome/131.0.0.0 Safari/537.36" version="26.0.6">
  <diagram name="Page-1" id="nPbbJaupHAq34pUZxnZI">
    <mxGraphModel dx="2098" dy="1120" grid="0" gridSize="10" guides="1" tooltips="1" connect="1" arrows="1" fold="1" page="1" pageScale="1" pageWidth="827" pageHeight="1169" math="0" shadow="0">
      <root>
        <mxCell id="0" />
        <mxCell id="1" parent="0" />
        <mxCell id="9FNfUe2uzRYyMl8Ia8Sq-86" value="" style="whiteSpace=wrap;html=1;" vertex="1" parent="1">
          <mxGeometry x="120" y="80" width="1441" height="815" as="geometry" />
        </mxCell>
        <mxCell id="9FNfUe2uzRYyMl8Ia8Sq-79" value="" style="whiteSpace=wrap;html=1;fillColor=#f8cecc;strokeColor=#b85450;" vertex="1" parent="1">
          <mxGeometry x="1150" y="590" width="150" height="200" as="geometry" />
        </mxCell>
        <mxCell id="9FNfUe2uzRYyMl8Ia8Sq-9" value="" style="whiteSpace=wrap;html=1;fillColor=#ffe6cc;strokeColor=#d79b00;" vertex="1" parent="1">
          <mxGeometry x="540" y="170" width="590" height="520" as="geometry" />
        </mxCell>
        <mxCell id="9FNfUe2uzRYyMl8Ia8Sq-46" value="" style="group" vertex="1" connectable="0" parent="1">
          <mxGeometry x="610" y="335" width="210" height="91" as="geometry" />
        </mxCell>
        <mxCell id="9FNfUe2uzRYyMl8Ia8Sq-50" value="" style="group" vertex="1" connectable="0" parent="9FNfUe2uzRYyMl8Ia8Sq-46">
          <mxGeometry x="20" y="-27" width="190" height="91" as="geometry" />
        </mxCell>
        <mxCell id="9FNfUe2uzRYyMl8Ia8Sq-51" value="&lt;font style=&quot;font-size: 15px;&quot;&gt;video-processor&lt;/font&gt;&lt;div&gt;&lt;font style=&quot;font-size: 15px;&quot;&gt;-worker&lt;/font&gt;&lt;/div&gt;" style="rounded=0;whiteSpace=wrap;html=1;" vertex="1" parent="9FNfUe2uzRYyMl8Ia8Sq-50">
          <mxGeometry x="20" y="6" width="160" height="80" as="geometry" />
        </mxCell>
        <mxCell id="9FNfUe2uzRYyMl8Ia8Sq-52" value="&lt;font style=&quot;font-size: 10px;&quot;&gt;FFmpeg&amp;nbsp;&lt;/font&gt;" style="ellipse;whiteSpace=wrap;html=1;" vertex="1" parent="9FNfUe2uzRYyMl8Ia8Sq-50">
          <mxGeometry x="140" y="41" width="50" height="50" as="geometry" />
        </mxCell>
        <mxCell id="9FNfUe2uzRYyMl8Ia8Sq-53" value="" style="sketch=0;outlineConnect=0;fontColor=#232F3E;gradientColor=none;fillColor=#232F3D;strokeColor=none;dashed=0;verticalLabelPosition=bottom;verticalAlign=top;align=center;html=1;fontSize=12;fontStyle=0;aspect=fixed;pointerEvents=1;shape=mxgraph.aws4.gear;" vertex="1" parent="9FNfUe2uzRYyMl8Ia8Sq-50">
          <mxGeometry width="40" height="40" as="geometry" />
        </mxCell>
        <mxCell id="9FNfUe2uzRYyMl8Ia8Sq-47" value="&lt;font style=&quot;font-size: 15px;&quot;&gt;video-processor&lt;/font&gt;&lt;div&gt;&lt;font style=&quot;font-size: 15px;&quot;&gt;-worker&lt;/font&gt;&lt;/div&gt;" style="rounded=0;whiteSpace=wrap;html=1;" vertex="1" parent="9FNfUe2uzRYyMl8Ia8Sq-46">
          <mxGeometry x="20" y="6" width="160" height="80" as="geometry" />
        </mxCell>
        <mxCell id="9FNfUe2uzRYyMl8Ia8Sq-48" value="&lt;font style=&quot;font-size: 10px;&quot;&gt;FFmpeg&amp;nbsp;&lt;/font&gt;" style="ellipse;whiteSpace=wrap;html=1;" vertex="1" parent="9FNfUe2uzRYyMl8Ia8Sq-46">
          <mxGeometry x="140" y="41" width="50" height="50" as="geometry" />
        </mxCell>
        <mxCell id="9FNfUe2uzRYyMl8Ia8Sq-49" value="" style="sketch=0;outlineConnect=0;fontColor=#232F3E;gradientColor=none;fillColor=#232F3D;strokeColor=none;dashed=0;verticalLabelPosition=bottom;verticalAlign=top;align=center;html=1;fontSize=12;fontStyle=0;aspect=fixed;pointerEvents=1;shape=mxgraph.aws4.gear;" vertex="1" parent="9FNfUe2uzRYyMl8Ia8Sq-46">
          <mxGeometry width="40" height="40" as="geometry" />
        </mxCell>
        <mxCell id="9FNfUe2uzRYyMl8Ia8Sq-40" value="&lt;font style=&quot;font-size: 15px;&quot;&gt;video-manager-api&lt;/font&gt;" style="whiteSpace=wrap;html=1;" vertex="1" parent="1">
          <mxGeometry x="953" y="335" width="160" height="80" as="geometry" />
        </mxCell>
        <mxCell id="9FNfUe2uzRYyMl8Ia8Sq-3" value="" style="rounded=0;whiteSpace=wrap;html=1;fillColor=#f8cecc;strokeColor=#b85450;" vertex="1" parent="1">
          <mxGeometry x="180" y="380" width="210" height="90" as="geometry" />
        </mxCell>
        <mxCell id="9FNfUe2uzRYyMl8Ia8Sq-1" value="videos-to-process" style="sketch=0;aspect=fixed;pointerEvents=1;shadow=0;dashed=0;html=1;strokeColor=none;labelPosition=center;verticalLabelPosition=bottom;verticalAlign=top;align=center;fillColor=#000000;shape=mxgraph.azure.queue_generic" vertex="1" parent="1">
          <mxGeometry x="240" y="401.25" width="125" height="37.5" as="geometry" />
        </mxCell>
        <mxCell id="9FNfUe2uzRYyMl8Ia8Sq-17" style="edgeStyle=orthogonalEdgeStyle;rounded=0;orthogonalLoop=1;jettySize=auto;html=1;entryX=0;entryY=0.5;entryDx=0;entryDy=0;" edge="1" parent="1" source="9FNfUe2uzRYyMl8Ia8Sq-7" target="9FNfUe2uzRYyMl8Ia8Sq-14">
          <mxGeometry relative="1" as="geometry" />
        </mxCell>
        <mxCell id="9FNfUe2uzRYyMl8Ia8Sq-13" value="" style="edgeStyle=segmentEdgeStyle;endArrow=classic;html=1;curved=0;rounded=0;endSize=8;startSize=8;sourcePerimeterSpacing=0;targetPerimeterSpacing=0;entryX=1;entryY=0.51;entryDx=0;entryDy=0;entryPerimeter=0;exitX=0;exitY=0.5;exitDx=0;exitDy=0;" edge="1" parent="1" source="9FNfUe2uzRYyMl8Ia8Sq-7" target="9FNfUe2uzRYyMl8Ia8Sq-1">
          <mxGeometry width="100" relative="1" as="geometry">
            <mxPoint x="400" y="560" as="sourcePoint" />
            <mxPoint x="500" y="600" as="targetPoint" />
            <Array as="points">
              <mxPoint x="570" y="420" />
              <mxPoint x="570" y="420" />
            </Array>
          </mxGeometry>
        </mxCell>
        <mxCell id="9FNfUe2uzRYyMl8Ia8Sq-14" value="&lt;font style=&quot;font-size: 15px;&quot;&gt;video-manager-api&lt;/font&gt;" style="whiteSpace=wrap;html=1;" vertex="1" parent="1">
          <mxGeometry x="930" y="379.5" width="160" height="80" as="geometry" />
        </mxCell>
        <mxCell id="9FNfUe2uzRYyMl8Ia8Sq-18" value="&lt;div&gt;Chamada HTTP&lt;/div&gt;&lt;div&gt;Atualizar status&lt;/div&gt;" style="text;html=1;align=center;verticalAlign=middle;resizable=0;points=[];autosize=1;strokeColor=none;fillColor=none;" vertex="1" parent="1">
          <mxGeometry x="810" y="386" width="110" height="40" as="geometry" />
        </mxCell>
        <mxCell id="9FNfUe2uzRYyMl8Ia8Sq-31" value="" style="sketch=0;outlineConnect=0;fontColor=#232F3E;gradientColor=none;fillColor=#232F3D;strokeColor=none;dashed=0;verticalLabelPosition=bottom;verticalAlign=top;align=center;html=1;fontSize=12;fontStyle=0;aspect=fixed;pointerEvents=1;shape=mxgraph.aws4.globe;" vertex="1" parent="1">
          <mxGeometry x="920" y="374" width="33" height="33" as="geometry" />
        </mxCell>
        <mxCell id="9FNfUe2uzRYyMl8Ia8Sq-32" value="S3&lt;div&gt;videos-to-process&lt;/div&gt;" style="sketch=0;points=[[0,0,0],[0.25,0,0],[0.5,0,0],[0.75,0,0],[1,0,0],[0,1,0],[0.25,1,0],[0.5,1,0],[0.75,1,0],[1,1,0],[0,0.25,0],[0,0.5,0],[0,0.75,0],[1,0.25,0],[1,0.5,0],[1,0.75,0]];outlineConnect=0;fontColor=#232F3E;fillColor=#7AA116;strokeColor=#ffffff;dashed=0;verticalLabelPosition=bottom;verticalAlign=top;align=center;html=1;fontSize=12;fontStyle=0;aspect=fixed;shape=mxgraph.aws4.resourceIcon;resIcon=mxgraph.aws4.s3;" vertex="1" parent="1">
          <mxGeometry x="600" y="740" width="78" height="78" as="geometry" />
        </mxCell>
        <mxCell id="9FNfUe2uzRYyMl8Ia8Sq-34" value="&lt;div&gt;S3&lt;/div&gt;zip-files" style="sketch=0;points=[[0,0,0],[0.25,0,0],[0.5,0,0],[0.75,0,0],[1,0,0],[0,1,0],[0.25,1,0],[0.5,1,0],[0.75,1,0],[1,1,0],[0,0.25,0],[0,0.5,0],[0,0.75,0],[1,0.25,0],[1,0.5,0],[1,0.75,0]];outlineConnect=0;fontColor=#232F3E;fillColor=#7AA116;strokeColor=#ffffff;dashed=0;verticalLabelPosition=bottom;verticalAlign=top;align=center;html=1;fontSize=12;fontStyle=0;aspect=fixed;shape=mxgraph.aws4.resourceIcon;resIcon=mxgraph.aws4.s3;" vertex="1" parent="1">
          <mxGeometry x="753" y="740" width="78" height="78" as="geometry" />
        </mxCell>
        <mxCell id="9FNfUe2uzRYyMl8Ia8Sq-36" value="" style="edgeStyle=segmentEdgeStyle;endArrow=classic;html=1;curved=0;rounded=0;endSize=8;startSize=8;sourcePerimeterSpacing=0;targetPerimeterSpacing=0;exitX=0.5;exitY=1;exitDx=0;exitDy=0;entryX=0.5;entryY=0;entryDx=0;entryDy=0;entryPerimeter=0;" edge="1" parent="1" source="9FNfUe2uzRYyMl8Ia8Sq-7" target="9FNfUe2uzRYyMl8Ia8Sq-32">
          <mxGeometry width="100" relative="1" as="geometry">
            <mxPoint x="670" y="720" as="sourcePoint" />
            <mxPoint x="770" y="760" as="targetPoint" />
            <Array as="points">
              <mxPoint x="690" y="660" />
              <mxPoint x="639" y="660" />
            </Array>
          </mxGeometry>
        </mxCell>
        <mxCell id="9FNfUe2uzRYyMl8Ia8Sq-37" value="" style="edgeStyle=segmentEdgeStyle;endArrow=classic;html=1;curved=0;rounded=0;endSize=8;startSize=8;sourcePerimeterSpacing=0;targetPerimeterSpacing=0;exitX=0.75;exitY=1;exitDx=0;exitDy=0;entryX=0.5;entryY=0;entryDx=0;entryDy=0;entryPerimeter=0;" edge="1" parent="1" source="9FNfUe2uzRYyMl8Ia8Sq-7" target="9FNfUe2uzRYyMl8Ia8Sq-34">
          <mxGeometry width="100" relative="1" as="geometry">
            <mxPoint x="650" y="700" as="sourcePoint" />
            <mxPoint x="750" y="740" as="targetPoint" />
            <Array as="points">
              <mxPoint x="720" y="460" />
              <mxPoint x="720" y="660" />
              <mxPoint x="792" y="660" />
            </Array>
          </mxGeometry>
        </mxCell>
        <mxCell id="9FNfUe2uzRYyMl8Ia8Sq-38" value="Obtém&lt;br&gt;vídeos" style="text;html=1;align=center;verticalAlign=middle;resizable=0;points=[];autosize=1;strokeColor=none;fillColor=none;" vertex="1" parent="1">
          <mxGeometry x="633" y="625" width="60" height="40" as="geometry" />
        </mxCell>
        <mxCell id="9FNfUe2uzRYyMl8Ia8Sq-39" value="Salva arquivos&amp;nbsp;&lt;div&gt;ZIP&lt;/div&gt;" style="text;html=1;align=center;verticalAlign=middle;resizable=0;points=[];autosize=1;strokeColor=none;fillColor=none;" vertex="1" parent="1">
          <mxGeometry x="710" y="625" width="110" height="40" as="geometry" />
        </mxCell>
        <mxCell id="9FNfUe2uzRYyMl8Ia8Sq-41" value="" style="sketch=0;outlineConnect=0;fontColor=#232F3E;gradientColor=none;fillColor=#232F3D;strokeColor=none;dashed=0;verticalLabelPosition=bottom;verticalAlign=top;align=center;html=1;fontSize=12;fontStyle=0;aspect=fixed;pointerEvents=1;shape=mxgraph.aws4.globe;container=1;" vertex="1" parent="1">
          <mxGeometry x="940" y="332" width="33" height="33" as="geometry" />
        </mxCell>
        <mxCell id="9FNfUe2uzRYyMl8Ia8Sq-45" value="" style="group" vertex="1" connectable="0" parent="1">
          <mxGeometry x="590" y="374" width="190" height="91" as="geometry" />
        </mxCell>
        <mxCell id="9FNfUe2uzRYyMl8Ia8Sq-7" value="&lt;font style=&quot;font-size: 15px;&quot;&gt;video-processor&lt;/font&gt;&lt;div&gt;&lt;font style=&quot;font-size: 15px;&quot;&gt;-worker&lt;/font&gt;&lt;/div&gt;" style="rounded=0;whiteSpace=wrap;html=1;" vertex="1" parent="9FNfUe2uzRYyMl8Ia8Sq-45">
          <mxGeometry x="20" y="6" width="160" height="80" as="geometry" />
        </mxCell>
        <mxCell id="9FNfUe2uzRYyMl8Ia8Sq-24" value="&lt;font style=&quot;font-size: 10px;&quot;&gt;FFmpeg&amp;nbsp;&lt;/font&gt;" style="ellipse;whiteSpace=wrap;html=1;" vertex="1" parent="9FNfUe2uzRYyMl8Ia8Sq-45">
          <mxGeometry x="140" y="41" width="50" height="50" as="geometry" />
        </mxCell>
        <mxCell id="9FNfUe2uzRYyMl8Ia8Sq-27" value="" style="sketch=0;outlineConnect=0;fontColor=#232F3E;gradientColor=none;fillColor=#232F3D;strokeColor=none;dashed=0;verticalLabelPosition=bottom;verticalAlign=top;align=center;html=1;fontSize=12;fontStyle=0;aspect=fixed;pointerEvents=1;shape=mxgraph.aws4.gear;" vertex="1" parent="9FNfUe2uzRYyMl8Ia8Sq-45">
          <mxGeometry width="40" height="40" as="geometry" />
        </mxCell>
        <mxCell id="9FNfUe2uzRYyMl8Ia8Sq-54" value="Consome mensagens" style="text;html=1;align=center;verticalAlign=middle;resizable=0;points=[];autosize=1;strokeColor=none;fillColor=none;" vertex="1" parent="1">
          <mxGeometry x="390" y="396" width="140" height="30" as="geometry" />
        </mxCell>
        <mxCell id="9FNfUe2uzRYyMl8Ia8Sq-55" value="&lt;div&gt;SNS&lt;/div&gt;" style="sketch=0;points=[[0,0,0],[0.25,0,0],[0.5,0,0],[0.75,0,0],[1,0,0],[0,1,0],[0.25,1,0],[0.5,1,0],[0.75,1,0],[1,1,0],[0,0.25,0],[0,0.5,0],[0,0.75,0],[1,0.25,0],[1,0.5,0],[1,0.75,0]];outlineConnect=0;fontColor=#232F3E;fillColor=#E7157B;strokeColor=#ffffff;dashed=0;verticalLabelPosition=bottom;verticalAlign=top;align=center;html=1;fontSize=12;fontStyle=0;aspect=fixed;shape=mxgraph.aws4.resourceIcon;resIcon=mxgraph.aws4.sns;" vertex="1" parent="1">
          <mxGeometry x="1218" y="562" width="44.25" height="44.25" as="geometry" />
        </mxCell>
        <mxCell id="9FNfUe2uzRYyMl8Ia8Sq-56" value="" style="edgeStyle=none;orthogonalLoop=1;jettySize=auto;html=1;rounded=0;exitX=1;exitY=1;exitDx=0;exitDy=0;entryX=0;entryY=0.14;entryDx=0;entryDy=0;entryPerimeter=0;" edge="1" parent="1" source="9FNfUe2uzRYyMl8Ia8Sq-24" target="9FNfUe2uzRYyMl8Ia8Sq-76">
          <mxGeometry width="100" relative="1" as="geometry">
            <mxPoint x="960" y="780" as="sourcePoint" />
            <mxPoint x="1060" y="780" as="targetPoint" />
            <Array as="points" />
          </mxGeometry>
        </mxCell>
        <mxCell id="9FNfUe2uzRYyMl8Ia8Sq-64" value="" style="group" vertex="1" connectable="0" parent="1">
          <mxGeometry x="1350" y="668.75" width="51" height="28.5" as="geometry" />
        </mxCell>
        <mxCell id="9FNfUe2uzRYyMl8Ia8Sq-60" value="" style="html=1;verticalLabelPosition=bottom;align=center;labelBackgroundColor=#ffffff;verticalAlign=top;strokeWidth=2;strokeColor=#0080F0;shadow=0;dashed=0;shape=mxgraph.ios7.icons.mail;" vertex="1" parent="9FNfUe2uzRYyMl8Ia8Sq-64">
          <mxGeometry x="21" width="30" height="16.5" as="geometry" />
        </mxCell>
        <mxCell id="9FNfUe2uzRYyMl8Ia8Sq-61" value="" style="html=1;verticalLabelPosition=bottom;align=center;labelBackgroundColor=#ffffff;verticalAlign=top;strokeWidth=2;strokeColor=#0080F0;shadow=0;dashed=0;shape=mxgraph.ios7.icons.mail;" vertex="1" parent="9FNfUe2uzRYyMl8Ia8Sq-64">
          <mxGeometry x="10" y="5.5" width="30" height="16.5" as="geometry" />
        </mxCell>
        <mxCell id="9FNfUe2uzRYyMl8Ia8Sq-63" value="" style="html=1;verticalLabelPosition=bottom;align=center;labelBackgroundColor=#ffffff;verticalAlign=top;strokeWidth=2;strokeColor=#0080F0;shadow=0;dashed=0;shape=mxgraph.ios7.icons.mail;" vertex="1" parent="9FNfUe2uzRYyMl8Ia8Sq-64">
          <mxGeometry y="12" width="30" height="16.5" as="geometry" />
        </mxCell>
        <mxCell id="9FNfUe2uzRYyMl8Ia8Sq-65" value="" style="edgeStyle=none;orthogonalLoop=1;jettySize=auto;html=1;rounded=0;entryX=0.042;entryY=0.092;entryDx=0;entryDy=0;entryPerimeter=0;exitX=1;exitY=0.5;exitDx=0;exitDy=0;exitPerimeter=0;" edge="1" parent="1" source="9FNfUe2uzRYyMl8Ia8Sq-76" target="9FNfUe2uzRYyMl8Ia8Sq-63">
          <mxGeometry width="100" relative="1" as="geometry">
            <mxPoint x="1240" y="600" as="sourcePoint" />
            <mxPoint x="1350" y="600" as="targetPoint" />
            <Array as="points" />
          </mxGeometry>
        </mxCell>
        <mxCell id="9FNfUe2uzRYyMl8Ia8Sq-66" value="Emails" style="text;html=1;align=center;verticalAlign=middle;resizable=0;points=[];autosize=1;strokeColor=none;fillColor=none;" vertex="1" parent="1">
          <mxGeometry x="1341" y="690" width="60" height="30" as="geometry" />
        </mxCell>
        <mxCell id="9FNfUe2uzRYyMl8Ia8Sq-67" value="Notifica em caso&lt;div&gt;de erro&lt;/div&gt;" style="text;html=1;align=center;verticalAlign=middle;resizable=0;points=[];autosize=1;strokeColor=none;fillColor=none;" vertex="1" parent="1">
          <mxGeometry x="930" y="510" width="110" height="40" as="geometry" />
        </mxCell>
        <mxCell id="9FNfUe2uzRYyMl8Ia8Sq-68" value="Users" style="sketch=0;outlineConnect=0;fontColor=#232F3E;gradientColor=none;fillColor=#232F3D;strokeColor=none;dashed=0;verticalLabelPosition=bottom;verticalAlign=top;align=center;html=1;fontSize=12;fontStyle=0;aspect=fixed;pointerEvents=1;shape=mxgraph.aws4.users;" vertex="1" parent="1">
          <mxGeometry x="1480" y="657.25" width="40" height="40" as="geometry" />
        </mxCell>
        <mxCell id="9FNfUe2uzRYyMl8Ia8Sq-70" style="edgeStyle=orthogonalEdgeStyle;rounded=0;orthogonalLoop=1;jettySize=auto;html=1;" edge="1" parent="1" source="9FNfUe2uzRYyMl8Ia8Sq-60" target="9FNfUe2uzRYyMl8Ia8Sq-68">
          <mxGeometry relative="1" as="geometry" />
        </mxCell>
        <mxCell id="9FNfUe2uzRYyMl8Ia8Sq-71" value="SQS" style="sketch=0;points=[[0,0,0],[0.25,0,0],[0.5,0,0],[0.75,0,0],[1,0,0],[0,1,0],[0.25,1,0],[0.5,1,0],[0.75,1,0],[1,1,0],[0,0.25,0],[0,0.5,0],[0,0.75,0],[1,0.25,0],[1,0.5,0],[1,0.75,0]];outlineConnect=0;fontColor=#232F3E;fillColor=#E7157B;strokeColor=#ffffff;dashed=0;verticalLabelPosition=bottom;verticalAlign=top;align=center;html=1;fontSize=12;fontStyle=0;aspect=fixed;shape=mxgraph.aws4.resourceIcon;resIcon=mxgraph.aws4.sqs;" vertex="1" parent="1">
          <mxGeometry x="190" y="358" width="38" height="38" as="geometry" />
        </mxCell>
        <mxCell id="9FNfUe2uzRYyMl8Ia8Sq-74" value="EKS" style="sketch=0;points=[[0,0,0],[0.25,0,0],[0.5,0,0],[0.75,0,0],[1,0,0],[0,1,0],[0.25,1,0],[0.5,1,0],[0.75,1,0],[1,1,0],[0,0.25,0],[0,0.5,0],[0,0.75,0],[1,0.25,0],[1,0.5,0],[1,0.75,0]];outlineConnect=0;fontColor=#232F3E;fillColor=#ED7100;strokeColor=#ffffff;dashed=0;verticalLabelPosition=bottom;verticalAlign=top;align=center;html=1;fontSize=12;fontStyle=0;aspect=fixed;shape=mxgraph.aws4.resourceIcon;resIcon=mxgraph.aws4.eks;" vertex="1" parent="1">
          <mxGeometry x="555" y="140" width="60" height="60" as="geometry" />
        </mxCell>
        <mxCell id="9FNfUe2uzRYyMl8Ia8Sq-76" value="video-processing-failures" style="outlineConnect=0;dashed=0;verticalLabelPosition=bottom;verticalAlign=top;align=center;html=1;shape=mxgraph.aws3.topic;fillColor=#FF99CC;gradientColor=none;" vertex="1" parent="1">
          <mxGeometry x="1200.5" y="650" width="49.5" height="66" as="geometry" />
        </mxCell>
      </root>
    </mxGraphModel>
  </diagram>
</mxfile>
